<?xml version="1.0" encoding="UTF-8"?>
<svg id="_레이어_1" data-name="레이어 1" xmlns="http://www.w3.org/2000/svg" width="1080" height="1080" version="1.1" viewBox="0 0 1080 1080">
  <g>
    <circle cx="538.4" cy="545.1" r="154.3" fill="#6495d1"/>
    <path d="M529.5,382.1l-5.3.4-2.7.2-2.7.3c-20.5,2.4-40.6,8.8-58.7,18.7-18.1,9.9-34.4,23.3-47.5,39.2-13.2,15.9-23.3,34.3-29.7,54-6.4,19.7-8.8,40.6-7.5,61.2,1.3,20.6,6.7,41,15.6,59.6,9,18.6,21.5,35.5,36.7,49.5,15.2,14,33.1,25.1,52.4,32.4,19.3,7.4,40.1,11,60.7,10.7,20.6-.3,41.3-4.5,60.3-12.5,19.1-8,36.6-19.6,51.4-34.1,14.8-14.4,26.8-31.7,35.1-50.6,8.4-18.9,13.1-39.4,13.8-60,.4-10.3-.2-20.7-1.7-30.9-1.6-10.2-4.1-20.3-7.6-30-6.9-19.5-17.7-37.6-31.3-53.1-13.7-15.5-30.3-28.4-48.7-37.7-18.4-9.4-38.7-15.1-59.2-17l-5.7-.4c-4.3-.2-7.9.7-7.9,1.8v14c0,1.1,3,2,6.9,2.2l5.1.4c18.3,1.6,36.3,6.8,52.7,15.1,16.4,8.3,31.2,19.8,43.3,33.6,12.2,13.8,21.7,29.9,27.9,47.2,3.1,8.7,5.4,17.6,6.8,26.7,1.4,9.1,1.9,18.3,1.5,27.5-.7,18.4-4.8,36.6-12.3,53.4-7.4,16.8-18.1,32.2-31.3,45-13.1,12.9-28.7,23.2-45.7,30.3-17,7.1-35.3,10.9-53.7,11.1-18.4.3-36.8-2.9-54-9.5-17.2-6.5-33.1-16.4-46.6-28.9-13.5-12.5-24.7-27.5-32.7-44.1-8-16.6-12.7-34.7-13.9-53-1.2-18.4,1-36.9,6.6-54.4,5.6-17.5,14.6-33.9,26.4-48.1,11.7-14.2,26.2-26.1,42.3-34.9,16.1-8.8,34-14.5,52.2-16.7l2.4-.3,2.4-.2,4.8-.4c3.9-.1,7-1.1,7-2.2v-14c0-1.1-3.6-1.9-8-1.8Z"/>
  </g>
  <path d="M680.1,545.1c0,4-.1,7.9-.5,11.9-.1,1.8-.3,3.7-.5,5.5-.1.4-.4,3.3-.2,1.4s-.3,1.7-.3,2.1c-1.2,7.6-3,15.1-5.4,22.4-1.2,3.6-2.5,7.1-3.9,10.7-.9,2.2.9-2,0,.1-.4.8-.7,1.6-1.1,2.4-.9,2-1.9,4-2.9,6-3.4,6.7-7.3,13.1-11.6,19.1-.5.7-1,1.4-1.5,2.1-.2.3-1.9,2.5-.8,1.1s-.6.7-.8,1.1c-.7.8-1.4,1.7-2.1,2.5-2.4,2.8-4.9,5.6-7.4,8.3s-5.3,5.2-8,7.7c-1.3,1.2-2.6,2.3-4,3.4-.7.6-1.3,1.1-2,1.7-.3.2-3.1,2.4-1.6,1.3,1.7-1.3-1.7,1.3-1.6,1.2-.7.5-1.4,1-2.1,1.5-1.4,1-2.9,2-4.3,3-3.3,2.2-6.7,4.2-10.2,6.1-3.1,1.7-6.2,3.3-9.4,4.8-.8.4-5.2,2.2-2.5,1.1-2.1.8-4.1,1.6-6.2,2.4-7.2,2.6-14.6,4.6-22,6.1-1.8.4-3.6.7-5.4,1-.9.1-1.8.3-2.7.4,2.8-.4.5-.1-.1,0-4.2.4-8.3.8-12.5.9-7.9.3-15.8-.1-23.7-.9-3-.3-.7-.1-.1,0-.9-.1-1.8-.3-2.7-.4-1.8-.3-3.6-.6-5.4-1-4-.8-7.9-1.7-11.8-2.9-3.4-1-6.8-2.1-10.2-3.3-1.9-.7-3.7-1.4-5.6-2.1-2.2-.8,2,.9,0,0-1-.5-2-.9-3-1.4-6.8-3.1-13.3-6.8-19.6-10.8-1.5-1-2.9-1.9-4.3-3-.9-.6-1.8-1.3-2.7-1.9-.3-.2-2.5-1.9-1.1-.8s-.7-.6-1.1-.8c-.7-.6-1.4-1.1-2-1.7-1.5-1.3-3-2.5-4.5-3.9-5.7-5.1-11-10.6-15.9-16.5-.6-.7-1.1-1.4-1.7-2-.3-.3-1.9-2.5-.8-1.1s-.6-.8-.8-1.1c-.5-.7-1-1.4-1.5-2.1-2.3-3.2-4.4-6.5-6.5-9.9-1.8-3-3.5-6.1-5.1-9.2-.9-1.8-1.8-3.5-2.6-5.4-.4-.8-.7-1.6-1.1-2.4-1.2-2.6.3.9-.3-.7-2.8-7.1-5.2-14.3-7-21.7-.9-3.8-1.7-7.5-2.3-11.3-.1-.9-.3-1.8-.4-2.7.1.6.3,2.9,0-.1-.2-2.1-.4-4.1-.6-6.2-.6-8.1-.6-16.3.1-24.5.1-1.8.3-3.7.5-5.5.1-.6.4-3,0-.1.1-.9.3-1.8.4-2.7.7-4,1.5-8,2.4-12,1.8-7.4,4.2-14.6,7-21.6-1.2,2.9.8-1.9,1.1-2.5.7-1.6,1.5-3.2,2.3-4.8,1.8-3.5,3.7-7,5.8-10.4,1.8-3,3.7-5.9,5.8-8.8,1-1.4,2-2.8,3.1-4.2-1.6,2.2-.3.3,0,0,.8-1,1.6-2,2.5-3,4.8-5.7,9.9-11,15.5-16,2.6-2.3,5.3-4.6,8-6.7-2.3,1.8,2.1-1.5,2.8-2,1.6-1.1,3.2-2.3,4.9-3.3,6.3-4.1,12.8-7.7,19.6-10.8.6-.3,5.3-2.3,2.5-1.1,1.9-.8,3.7-1.5,5.6-2.2,3.6-1.3,7.2-2.5,10.8-3.5s7.4-1.9,11.2-2.7c1.8-.4,3.6-.7,5.4-1,.9-.1,1.8-.3,2.7-.4,1.1-.2.9-.1-.6.1.7-.1,1.4-.2,2-.2,7.9-.9,15.8-1.2,23.7-.8,3.7.1,7.4.4,11.1.8.8.1,3.8.5.8.1.9.1,1.8.3,2.7.4,2,.3,4,.7,6,1.1,7.5,1.5,14.8,3.6,22,6.2,1.9.7,3.7,1.4,5.6,2.2-2.9-1.2,1.9.8,2.5,1.1,3.6,1.7,7.1,3.5,10.6,5.4,3.1,1.7,6.1,3.5,9,5.5,1.5,1,2.9,1.9,4.3,3,.7.5,1.4,1,2.1,1.5.2.2,3.7,2.8,1.1.8,5.9,4.5,11.4,9.6,16.5,14.9,2.4,2.5,4.8,5.1,7,7.8,1.1,1.3,2.2,2.7,3.3,4.1-1.7-2.2-.3-.3,0,0,.8,1.1,1.6,2.1,2.3,3.2,4.3,6.1,8.1,12.5,11.5,19.2.8,1.6,1.6,3.2,2.3,4.8.3.6,2.3,5.4,1.1,2.5,1.5,3.7,2.9,7.5,4.1,11.3,2.3,7.3,4.1,14.8,5.4,22.4.1.9.3,1.8.4,2.7-.4-2.9-.1-.5,0,.1.2,1.8.4,3.7.5,5.5.3,4.2.5,8.4.5,12.6,0,7.8,6.9,15.4,15,15s15-6.6,15-15c-.3-71-45.3-134.6-111.7-159.2-65.4-24.8-142.9-3.8-187.2,50.1-22.6,27.5-36.1,60.6-39,96-2.8,34.6,5.8,70.2,23.7,99.9,17.4,28.7,43.5,52.5,74.1,66.3,33.1,14.9,69.6,19.2,105.2,12.1,67.3-13.4,122.3-70.3,132.7-138.3,1.4-9.1,2.3-18.3,2.3-27.5s-6.9-15.4-15-15-15,6.6-15,15h.1Z" fill="#070001"/>
  <path d="M742.3,437.5" fill="none"/>
  <g>
    <path d="M457.1,517.2c.6,22.1,1.1,44.3,1.7,66.4" />
    <path d="M467.8,582.8v-.7s-1.7-64.2-1.7-64.2v-.4c0-.3-.9-.5-2-.5l-14,.4c-1.1,0-2,.3-2,.6v.4s1.7,64.2,1.7,64.2v.7c0,.3.9.5,2,.5l14-.4c1.1,0,2-.3,2-.6Z"/>
  </g>
  <g>
    <path d="M457.9,525c15.9,16.3,29.9,34,41.8,52.7" />
    <path d="M507,572.3l-.4-.6c-12.1-18.8-26.1-36.3-41.6-52.3l-.3-.3c-.2-.2-1,.2-1.8,1l-10.1,9.8c-.8.8-1.3,1.5-1.1,1.7l.3.3c14.7,15.2,28,31.8,39.4,49.5l.4.6c.2.2,1,0,1.9-.6l11.8-7.6c.9-.6,1.5-1.3,1.4-1.5Z"/>
  </g>
  <g>
    <path d="M496.4,519.3c-.3,11.1-.3,22.3.1,33.4.1,2.9.2,5.7.4,8.6.3,7.1.6,14.2.9,21.3" />
    <path d="M506.8,581.6v-.7s-1.3-30.5-1.3-30.5c-.3-10-.4-20,0-30.1v-.3c0-.3-.9-.5-2-.5l-14-.4c-1.1,0-2,.2-2,.4v.4c-.3,10.4-.2,20.7,0,31.1.4,10.3.9,20.5,1.3,30.7v.7c0,.3.9.4,2,.4l14-.6c1.1,0,2-.3,2-.6Z"/>
  </g>
  <g>
    <path d="M527.9,520.2c-.3,11.1-.3,22.3.1,33.4.1,2.9.2,5.7.4,8.6.3,7.1.6,14.2.9,21.3" />
    <path d="M538.3,582.5v-.7s-1.3-30.5-1.3-30.5c-.3-10-.4-20,0-30.1v-.3c0-.3-.9-.5-2-.5l-14-.4c-1.1,0-2,.2-2,.4v.4c-.3,10.4-.2,20.7,0,31.1.4,10.3.9,20.5,1.3,30.7v.7c0,.3.9.4,2,.4l14-.6c1.1,0,2-.3,2-.6Z"/>
  </g>
  <g>
    <path d="M528.5,550.7c5.4-.9,10.4-3.5,15.1-6.2,8.4-4.8,16.5-10,24.3-15.7" />
    <path d="M562.4,521.7l-.4.3c-5.7,4.1-11.7,8-17.7,11.6-3,1.8-6.2,3.7-9,5.1-2.8,1.5-5.5,2.5-7.8,2.9h-.2c-.1,0,0,.9,0,2l2.3,13.9c.2,1.1.5,1.9.8,1.9h.3c4.9-1,9.1-2.8,12.7-4.7,3.7-1.9,6.8-3.8,10.1-5.7,6.5-3.9,12.8-8,18.9-12.4l.4-.3c.2-.1-.2-.9-.9-1.8l-8.2-11.4c-.6-.9-1.3-1.5-1.4-1.4Z"/>
  </g>
  <g>
    <path d="M538.4,544c2.1,5.1,5.8,9.4,9.5,13.4,6.6,7.1,13.5,13.9,20.8,20.3" />
    <path d="M574.4,570.7l-.3-.3c-5.3-4.7-10.5-9.6-15.4-14.7-2.4-2.5-5-5.2-7.1-7.7-2.1-2.5-3.7-4.8-4.7-7v-.2c-.1-.1-1,.1-2,.5l-13,5.3c-1,.4-1.7.9-1.6,1.2v.3c2.1,4.5,4.9,8.2,7.5,11.4,2.7,3.2,5.2,5.8,7.9,8.6,5.3,5.5,10.8,10.7,16.5,15.7l.4.3c.1.1.9-.4,1.6-1.2l9.3-10.6c.7-.8,1.2-1.6,1-1.7Z"/>
  </g>
  <g>
    <path d="M585.7,533.9c15.6.3,31.3.6,46.9.8" />
    <path d="M632.3,525.8h-.5s-45.4-.8-45.4-.8h-.3c-.2,0-.4.9-.4,2l-.2,14c0,1.1.1,2,.3,2h.3s45.4.8,45.4.8h.5c.2,0,.4-.9.4-2l.2-14c0-1.1-.1-2-.3-2Z"/>
  </g>
  <g>
    <path d="M584.2,576.5c15.6.3,31.3.6,46.9.8" />
    <path d="M630.9,568.3h-.5s-45.4-.8-45.4-.8h-.3c-.2,0-.4.9-.4,2l-.2,14c0,1.1.1,2,.3,2h.3s45.4.8,45.4.8h.5c.2,0,.4-.9.4-2l.2-14c0-1.1-.1-2-.3-2Z"/>
  </g>
  <g>
    <path d="M610.7,527.7c-.4,9.8-.5,19.6-.2,29.4,0,2.5.2,5,.3,7.5.2,6.2.5,12.5.7,18.7" />
    <path d="M620.4,582.5v-.6c-.3-8.9-.7-18-1-26.7-.2-8.8-.1-17.5.2-26.3v-.3c0-.2-.9-.5-1.9-.5l-14-.6c-1.1,0-2,.1-2,.3v.3c-.4,9.1-.5,18.3-.3,27.5.3,9.1.6,18,1,27v.6c0,.2.9.4,2,.4l14-.5c1.1,0,2-.3,2-.5Z"/>
  </g>
</svg>